<svg width="14" height="12" viewBox="0 0 14 12" fill="none" xmlns="http://www.w3.org/2000/svg">
<path fill-rule="evenodd" clip-rule="evenodd" d="M11.9802 0.940416C11.843 0.739244 11.5718 0.68956 11.3744 0.829443C11.1771 0.969326 11.1284 1.24581 11.2656 1.44698C12.0845 2.64749 12.5461 4.23966 12.5461 5.96627C12.5461 7.69302 12.0844 9.28576 11.2656 10.4862C11.1284 10.6873 11.1771 10.9638 11.3744 11.1037C11.5718 11.2436 11.843 11.1939 11.9802 10.9927C12.9035 9.63924 13.4166 7.86932 13.4166 5.96627C13.4166 4.06335 12.9035 2.29399 11.9802 0.940416ZM6.14307 0.902043L6.23345 0.898517L6.31576 0.899412C6.90494 0.928238 7.40867 1.37101 7.60152 2.02759C7.65524 2.23694 7.68559 2.44167 7.72095 2.77497L7.76797 3.21175C7.8627 4.22426 7.85965 8.2015 7.75897 9.02145L7.69648 9.60942C7.67176 9.80772 7.64356 9.96026 7.59739 10.1353C7.39811 10.8137 6.84823 11.2682 6.24021 11.2494C5.93072 11.2572 5.55382 11.0967 5.29164 10.8719L3.2258 9.1612L2.16257 9.16149C1.37932 9.16149 0.821437 8.62552 0.684408 7.80786L0.668937 7.69964C0.552903 6.85886 0.556508 5.33025 0.668889 4.41138C0.78135 3.59171 1.36859 2.98699 2.16257 2.98699L3.22522 2.98667L5.23955 1.31341C5.4834 1.10283 5.84732 0.929631 6.14307 0.902043ZM6.2422 1.78541L6.22014 1.7855C6.14989 1.78396 5.92418 1.8851 5.79584 1.99582L3.65526 3.77454C3.57759 3.83907 3.48047 3.87431 3.38027 3.87431H2.16257C1.8328 3.87431 1.58672 4.12772 1.53179 4.5277C1.4294 5.36525 1.42598 6.81587 1.53196 7.58441C1.58698 8.04681 1.80979 8.27417 2.16257 8.27417H3.38027C3.4802 8.27417 3.57709 8.30923 3.65466 8.37345L5.84608 10.1879C5.96277 10.2879 6.1421 10.3643 6.2422 10.3624C6.45839 10.3689 6.67201 10.1923 6.7601 9.89312C6.80592 9.71889 6.82977 9.55591 6.85934 9.25631L6.87864 9.06142L6.89511 8.91258C6.99011 8.13886 6.99011 4.00962 6.89495 3.23456L6.83312 2.67258C6.81854 2.55399 6.80437 2.46003 6.78863 2.37947L6.76359 2.26728C6.672 1.9559 6.4581 1.77899 6.2422 1.78541ZM9.38343 2.63985C9.58078 2.49998 9.852 2.54968 9.98921 2.75086C10.582 3.62005 10.9102 4.7521 10.9102 5.96657C10.9102 7.1809 10.5821 8.31239 9.98921 9.18168C9.852 9.38286 9.58078 9.43257 9.38343 9.29269C9.18607 9.15282 9.13732 8.87635 9.27453 8.67517C9.76304 7.95891 10.0398 7.00459 10.0398 5.96657C10.0398 4.9284 9.76295 3.97351 9.27453 3.25738C9.13732 3.0562 9.18607 2.77972 9.38343 2.63985Z" fill="white"/>
</svg>
