<svg width="12" height="14" viewBox="0 0 12 14" fill="none" xmlns="http://www.w3.org/2000/svg">
<path fill-rule="evenodd" clip-rule="evenodd" d="M8.43536 0.333374C8.51753 1.11404 8.21633 1.89863 7.76881 2.46224C7.32126 3.02621 6.58674 3.46423 5.86774 3.40635C5.76976 2.64113 6.13291 1.84273 6.54757 1.34391C7.01026 0.780608 7.79029 0.360348 8.43536 0.333374ZM11.0987 10.1136C11.0211 10.0809 9.39911 9.39743 9.38144 7.41696C9.36719 5.76498 10.6508 4.9531 10.761 4.88342C10.7633 4.88195 10.7651 4.88081 10.7664 4.88C10.0132 3.73302 8.84035 3.57551 8.42251 3.55742C7.81201 3.49305 7.21971 3.73613 6.73604 3.93463C6.42896 4.06065 6.16566 4.16871 5.96928 4.16871C5.75017 4.16871 5.47944 4.05699 5.17568 3.93164C4.77794 3.76751 4.32355 3.58 3.85423 3.58932C2.76606 3.60577 1.76351 4.24732 1.20252 5.26045C0.0732449 7.30056 0.91426 10.3229 2.01477 11.9782C2.55334 12.7875 3.19523 13.699 4.03817 13.6658C4.41539 13.6504 4.68354 13.5316 4.9608 13.4087C5.28057 13.267 5.61246 13.12 6.13774 13.12C6.63956 13.12 6.95689 13.2628 7.26201 13.4001C7.55338 13.5313 7.83363 13.6574 8.25278 13.6494C9.12607 13.6326 9.68043 12.8234 10.2146 12.0111C10.8126 11.1018 11.0704 10.2206 11.0993 10.122C11.1002 10.1187 11.101 10.1163 11.1014 10.1147C11.1011 10.1146 11.1002 10.1142 11.0987 10.1136Z" fill="#0A0A0A"/>
</svg>
