<svg width="16" height="18" viewBox="0 0 16 18" fill="none" xmlns="http://www.w3.org/2000/svg">
<path d="M15.5 6.71411V13.1086C15.5 15.7245 13.8532 17.3333 11.2188 17.3333H4.77246C2.16287 17.3331 0.5 15.6911 0.5 13.0579V6.71411H15.5ZM11.3672 12.6594C10.9885 12.6678 10.6842 12.9832 10.6924 13.3665C10.6924 13.7496 10.9965 14.0659 11.375 14.0745C11.7619 14.0745 12.0752 13.7581 12.0752 13.3665C12.0751 12.9757 11.7619 12.6594 11.375 12.6594H11.3672ZM4.5918 12.6497C4.21314 12.6672 3.91707 12.9832 3.91699 13.3665C3.93346 13.7498 4.2463 14.0509 4.625 14.0334C4.99522 14.0174 5.29174 13.7007 5.27539 13.3176C5.26716 12.9427 4.96221 12.6497 4.5918 12.6497ZM7.9834 12.6497C7.6048 12.6672 7.30867 12.9832 7.30859 13.3665C7.32506 13.7498 7.6379 14.0509 8.0166 14.0334C8.38695 14.0175 8.68335 13.7008 8.66699 13.3176C8.65876 12.9426 8.35387 12.6497 7.9834 12.6497ZM4.59961 9.62524C4.22118 9.64289 3.92501 9.95899 3.9248 10.342C3.94127 10.7245 4.25411 11.0256 4.63281 11.0081C5.00328 10.9922 5.29967 10.6754 5.2832 10.2913C5.27479 9.91726 4.96997 9.62524 4.59961 9.62524ZM7.9834 9.62524C7.6049 9.64281 7.3088 9.95894 7.30859 10.342C7.32506 10.7245 7.6379 11.0256 8.0166 11.0081C8.38701 10.9921 8.68346 10.6754 8.66699 10.2913C8.65858 9.91726 8.35376 9.62524 7.9834 9.62524ZM11.375 9.63403C10.9965 9.64258 10.7002 9.95103 10.7002 10.3342V10.342C10.7084 10.7245 11.0217 11.0164 11.4004 11.0081C11.7707 11.0004 12.0667 10.6842 12.0586 10.301C12.0421 9.93353 11.7455 9.63403 11.375 9.63403Z" fill="#9E9E9E"/>
<path opacity="0.4" d="M0.502792 6.71404C0.513495 6.22487 0.554658 5.25404 0.632046 4.94154C1.02722 3.18404 2.36915 2.06737 4.28737 1.9082H11.7133C13.615 2.0757 14.9734 3.19987 15.3686 4.94154C15.4452 5.2457 15.4863 6.22404 15.497 6.71404H0.502792Z" fill="#9E9E9E"/>
<path d="M4.92072 4.49163C5.28296 4.49163 5.55464 4.21746 5.55464 3.84996V1.30913C5.55464 0.941626 5.28296 0.666626 4.92072 0.666626C4.55848 0.666626 4.2868 0.941626 4.2868 1.30913V3.84996C4.2868 4.21746 4.55848 4.49163 4.92072 4.49163" fill="#9E9E9E"/>
<path d="M11.0791 4.49163C11.4331 4.49163 11.713 4.21746 11.713 3.84996V1.30913C11.713 0.941626 11.4331 0.666626 11.0791 0.666626C10.7169 0.666626 10.4452 0.941626 10.4452 1.30913V3.84996C10.4452 4.21746 10.7169 4.49163 11.0791 4.49163" fill="#9E9E9E"/>
</svg>
