<svg width="14" height="14" viewBox="0 0 14 14" fill="none" xmlns="http://www.w3.org/2000/svg">
<path d="M5.60706 8.63818C8.70316 8.66513 10.4555 9.29066 10.4557 10.9985C10.4557 12.6704 8.77674 13.3156 5.81604 13.3696L5.39417 13.3735C2.16489 13.3735 0.333851 12.7594 0.333618 11.0122C0.333826 9.26275 2.17215 8.63722 5.39417 8.63721L5.60706 8.63818ZM5.39417 9.63721C2.7163 9.63722 1.33392 10.1077 1.33362 11.0122C1.33396 11.9109 2.71303 12.3735 5.39417 12.3735C8.07259 12.3735 9.45569 11.9032 9.45569 10.9985C9.45538 10.1002 8.07482 9.63721 5.39417 9.63721ZM10.7252 8.16553C11.1121 8.19187 11.4972 8.24764 11.8668 8.32959C12.6586 8.48717 13.2475 8.7812 13.5172 9.34717C13.7162 9.76612 13.7162 10.2535 13.5172 10.6724C13.2489 11.237 12.6661 11.529 11.8698 11.6929C11.5993 11.7485 11.3346 11.5747 11.2789 11.3042C11.2234 11.0339 11.3974 10.7692 11.6676 10.7134C12.1801 10.608 12.5218 10.4375 12.6139 10.2437C12.684 10.0961 12.6838 9.92388 12.6139 9.77686C12.5212 9.5823 12.1785 9.41121 11.6608 9.30811C11.3292 9.2347 10.9939 9.18552 10.6569 9.1626C10.3814 9.14383 10.1733 8.90583 10.192 8.63037C10.2108 8.35487 10.4497 8.14679 10.7252 8.16553ZM5.39417 0.666504C7.29277 0.666603 8.81702 2.19115 8.81702 4.08936C8.81692 5.98802 7.29283 7.51211 5.39417 7.51221C3.49565 7.51204 1.97141 5.98807 1.97131 4.08936C1.97131 2.1911 3.49571 0.666667 5.39417 0.666504ZM9.6803 1.37939C11.1701 1.37951 12.3785 2.58802 12.3785 4.07764C12.3785 5.56768 11.1703 6.77576 9.6803 6.77588C9.40426 6.77588 9.18046 6.55188 9.1803 6.27588C9.1803 5.99974 9.40416 5.77588 9.6803 5.77588C10.618 5.77576 11.3785 5.01539 11.3785 4.07764C11.3785 3.14026 10.6178 2.37951 9.6803 2.37939C9.40416 2.37939 9.1803 2.15554 9.1803 1.87939C9.18039 1.60333 9.40421 1.37939 9.6803 1.37939ZM5.39417 1.6665C4.04803 1.66667 2.97131 2.74335 2.97131 4.08936C2.97141 5.43585 4.04801 6.51204 5.39417 6.51221C6.74054 6.51211 7.81692 5.43573 7.81702 4.08936C7.81702 2.74347 6.74052 1.6666 5.39417 1.6665Z" fill="#9E9E9E"/>
</svg>
